# xmcd CD database file
#
# Track frame offsets:
#	150
#	14958
#	28667
#	38836
#	50492
#	64575
#	73713
#	86046
#	99006
#	112000
#	125766
#	136307
#
# Disc length: 2014 seconds
#
# Revision: 0
# Processed by: cddbd v1.5.2PL0 Copyright (c) Steve Scherf et al.
# Submitted via: CDex 1.51
#
DISCID=aa07dc0c
DTITLE=PURE GEORGE JONES - 12 TOPTEN HITS
DYEAR=1900
DGENRE=Country
TTITLE0=he stopped loving her today
TTITLE1=golden ring
TTITLE2=walk through this world with me
TTITLE3=she thinks I still care
TTITLE4=a good year for the roses
TTITLE5=love bug
TTITLE6=sometimes you just can't win
TTITLE7=southern california
TTITLE8=things have gone to pieces
TTITLE9=she's mine
TTITLE10=her name is
TTITLE11=who's gonna fill their shoes
EXTD=
EXTT0=
EXTT1=
EXTT2=
EXTT3=
EXTT4=
EXTT5=
EXTT6=
EXTT7=
EXTT8=
EXTT9=
EXTT10=
EXTT11=
PLAYORDER=
